<?xml version="1.0" encoding="UTF-8" standalone="no"?>
<svg width="24px" height="24px" viewBox="0 0 24 24" version="1.1" xmlns="http://www.w3.org/2000/svg" xmlns:xlink="http://www.w3.org/1999/xlink">
    <!-- Generator: Sketch 46 (44423) - http://www.bohemiancoding.com/sketch -->
    <title>Icons/light/solutions 2</title>
    <desc>Created with Sketch.</desc>
    <defs></defs>
    <g id="Symbols" stroke="none" stroke-width="1" fill="none" fill-rule="evenodd">
        <g id="Icons/light/solutions-2" fill-rule="nonzero" fill="#FFFFFF">
            <g id="lightbulb-on-outline" transform="translate(1.000000, 1.000000)">
                <path d="M19,10 L22,10 L22,12 L19,12 L19,10 L19,10 Z M0,10 L3,10 L3,12 L0,12 L0,10 L0,10 Z M12,0 L12,3 L10,3 L10,0 L12,0 L12,0 Z M3.92,2.5 L6.05,4.64 L4.63,6.05 L2.5,3.93 L3.92,2.5 L3.92,2.5 Z M15.95,4.63 L18.07,2.5 L19.5,3.93 L17.37,6.05 L15.95,4.63 L15.95,4.63 Z M11,5 C14.3137085,5 17,7.6862915 17,11 C17,13.22 15.79,15.16 14,16.2 L14,18 C14,18.5522847 13.5522847,19 13,19 L9,19 C8.44771525,19 8,18.5522847 8,18 L8,16.2 C6.21,15.16 5,13.22 5,11 C5,7.6862915 7.6862915,5 11,5 L11,5 Z M13,20 L13,21 C13,21.5522847 12.5522847,22 12,22 L10,22 C9.44771525,22 9,21.5522847 9,21 L9,20 L13,20 L13,20 Z M10,17 L12,17 L12,14.87 C13.73,14.43 15,12.86 15,11 C15,8.790861 13.209139,7 11,7 C8.790861,7 7,8.790861 7,11 C7,12.86 8.27,14.43 10,14.87 L10,17 Z" id="Shape"></path>
            </g>
        </g>
    </g>
</svg>
